<svg version="1.2" xmlns="http://www.w3.org/2000/svg" viewBox="0 0 1000 1000" width="1000" height="1000">
	<title>21742882_6459105-ai</title>
	<defs>
		<linearGradient id="g1" x1="288.6" y1="455" x2="578.4" y2="316" gradientUnits="userSpaceOnUse">
			<stop offset=".1" stop-color="#652f90"/>
			<stop offset=".8" stop-color="#b8519e"/>
		</linearGradient>
		<linearGradient id="g2" x1="298.6" y1="615.9" x2="687.6" y2="430.6" gradientUnits="userSpaceOnUse">
			<stop offset=".1" stop-color="#652f90"/>
			<stop offset=".8" stop-color="#b8519e"/>
		</linearGradient>
		<linearGradient id="g3" x1="388.6" y1="279.9" x2="419.7" y2="265.1" gradientUnits="userSpaceOnUse">
			<stop offset=".1" stop-color="#ce003a"/>
			<stop offset=".1" stop-color="#ce013a"/>
			<stop offset=".8" stop-color="#ff4d6d"/>
			<stop offset=".8" stop-color="#ff4d6d"/>
		</linearGradient>
		<linearGradient id="g4" x1="418.3" y1="725.7" x2="784.3" y2="551.4" gradientUnits="userSpaceOnUse">
			<stop offset=".1" stop-color="#652f90"/>
			<stop offset=".8" stop-color="#b8519e"/>
		</linearGradient>
		<linearGradient id="g5" x1="215.6" y1="440.7" x2="288.2" y2="395.9" gradientUnits="userSpaceOnUse">
			<stop offset=".2" stop-color="#3f37c9"/>
			<stop offset=".2" stop-color="#3f37c9"/>
			<stop offset=".9" stop-color="#3ebfc1"/>
		</linearGradient>
		<linearGradient id="g6" x1="345.3" y1="572.2" x2="673.6" y2="414.6" gradientUnits="userSpaceOnUse">
			<stop offset=".1" stop-color="#652f90"/>
			<stop offset=".8" stop-color="#b8519e"/>
		</linearGradient>
	</defs>
	<style>
		tspan { white-space:pre } 
		.s0 { fill: url(#g1) } 
		.s1 { fill: url(#g2) } 
		.s2 { fill: #ffb4a2 } 
		.s3 { fill: url(#g3) } 
		.s4 { fill: url(#g4) } 
		.s5 { fill: url(#g5) } 
		.s6 { fill: url(#g6) } 
	</style>
	<g id="BACKGROUND">
	</g>
	<g id="OBJECT">
		<g id="&lt;Group&gt;">
			<g id="&lt;Group&gt;">
				<path id="&lt;Path&gt;" class="s0" d="m379.5 513c0.6-14.9 3.8-29.9 10.1-44.4 27-61.6 99-89.8 160.7-62.8 61.8 26.9 90 98.8 63 160.4-5.9 13.4-13.8 25.2-23.4 35.2q-4.8-1.7-9.7-3.4c-37.1-13.3-78.6-29.8-121.8-48.6-27.7-12.1-54.2-24.4-78.9-36.4z"/>
				<path id="&lt;Path&gt;" class="s1" d="m664.5 471.9c-2.8 4.3-8.2 6-13 3.9-5.4-2.3-7.8-8.6-5.5-13.9 2.4-5.4 8.6-7.8 14-5.5 0.4 0.3 0.9 0.5 1.3 0.8-2.4 0.5-4.5 2-5.5 4.4-1.7 3.8 0.1 8.3 3.9 10 1.6 0.6 3.3 0.7 4.8 0.3z"/>
				<path id="&lt;Path&gt;" class="s2" d="m247.4 451.7c-3.3-2.5-6.3-4.8-7.3-5.6-26.1-19.8-39.3-35.3-35.7-43.5 4.1-9.4 27.5-9.5 63.9-2.2-21.1-3.4-34.3-2.5-36.9 3.4-2.4 5.5 6.8 16.2 22.1 28.5 0.8 0.7 3.6 2.9 6.6 5.1-5.3 3.5-9.8 8.3-12.7 14.3z"/>
				<path id="&lt;Path&gt;" class="s3" d="m436 373.6l-9-6.8-4.2 28.7-4.1-28.7-9.1 6.8 7.5-10-9.8-3.2 9.8-3.2-7.5-10 9.1 6.8 4.2-28.8 4.1 28.8 9.1-6.8-7.6 10 9.9 3.2-9.9 3.2z"/>
				<path id="&lt;Path&gt;" class="s4" d="m617.2 670.8l-9.1-6-2 12-2-12-9.2 5.9 6.9-8-8.8-1.7 8.8-1.7-6.8-8 9.1 6 2.1-12 1.9 12 9.2-5.9-6.9 7.9 8.8 1.8-8.8 1.7z"/>
				<path id="&lt;Path&gt;" class="s5" d="m310.1 477.3c-8 18.8-29.4 27.4-47.7 19.2-18.4-8.2-26.8-30.1-18.8-48.9 8.1-18.7 29.4-27.3 47.8-19.1 18.4 8.2 26.7 30.1 18.7 48.8z"/>
				<path id="&lt;Path&gt;" class="s2" d="m793.2 652.5c-10.7 24.5-153.2-14-318.3-86.1-61.6-26.9-119.8-55.2-165.3-80.7 1.6-2.1 3-4.4 4.1-7 1.5-3.6 2.5-7.3 2.8-11 42.4 23.8 96.2 50.4 155.9 76.4 146.6 64 272.4 100 281 80.4 4.8-10.9-40-43.5-97.4-76.1-13.4-7.6-27.8-15.8-27.8-16.7 110.3 55.7 173.3 101.8 165 120.8z"/>
				<path id="&lt;Path&gt;" class="s6" d="m565.4 621.2c-32.9 20.2-74.8 24.5-112.8 7.9-30.9-13.5-53.4-38.2-64.7-67.3-2.2-5.5-6.2-18.3-8.1-34.5 14.1 8.1 28.7 16.2 43.5 24.3 51 27.6 99.7 51.3 142.1 69.6z"/>
			</g>
		</g>
	</g>
</svg>